<?xml version="1.0" encoding="UTF-8" standalone="no"?>
<!DOCTYPE svg PUBLIC "-//W3C//DTD SVG 1.1//EN"
 "http://www.w3.org/Graphics/SVG/1.1/DTD/svg11.dtd">
<!-- Generated by graphviz version 2.40.1 (20161225.0304)
 -->
<!-- Title: main.c.012t.cfg Pages: 1 -->
<svg width="338pt" height="740pt"
 viewBox="0.00 0.00 338.00 740.00" xmlns="http://www.w3.org/2000/svg" xmlns:xlink="http://www.w3.org/1999/xlink">
<g id="graph0" class="graph" transform="scale(1 1) rotate(0) translate(4 736)">
<title>main.c.012t.cfg</title>
<polygon fill="#ffffff" stroke="transparent" points="-4,4 -4,-736 334,-736 334,4 -4,4"/>
<g id="clust1" class="cluster">
<title>cluster_main</title>
<polygon fill="none" stroke="#000000" stroke-dasharray="5,2" points="8,-8 8,-724 322,-724 322,-8 8,-8"/>
<text text-anchor="middle" x="165" y="-707.4" font-family="Times,serif" font-size="14.00" fill="#000000">main ()</text>
</g>
<g id="clust2" class="cluster">
<title>cluster_0_1</title>
<polygon fill="#e0e0e0" stroke="#006400" stroke-width="2" points="164,-203.8 164,-494.2 314,-494.2 314,-203.8 164,-203.8"/>
<text text-anchor="middle" x="189.6953" y="-477.6" font-family="Times,serif" font-size="14.00" fill="#000000">loop 1</text>
</g>
<!-- fn_0_basic_block_4 -->
<g id="node1" class="node">
<title>fn_0_basic_block_4</title>
<polygon fill="#d3d3d3" stroke="#000000" points="172.3673,-336.1 172.3673,-460.9 305.6327,-460.9 305.6327,-336.1 172.3673,-336.1"/>
<text text-anchor="start" x="180.3673" y="-444.3" font-family="Times,serif" font-size="14.00" fill="#000000">&lt;bb 4&gt;:</text>
<polyline fill="none" stroke="#000000" points="172.3673,-436.1 305.6327,-436.1 "/>
<text text-anchor="start" x="180.3673" y="-419.5" font-family="Times,serif" font-size="14.00" fill="#000000">n.0_1 = n;</text>
<polyline fill="none" stroke="#000000" points="172.3673,-411.3 305.6327,-411.3 "/>
<text text-anchor="start" x="180.3673" y="-394.7" font-family="Times,serif" font-size="14.00" fill="#000000">if (i &lt;= n.0_1)</text>
<text text-anchor="start" x="180.3673" y="-377.9" font-family="Times,serif" font-size="14.00" fill="#000000"> &#160;goto &lt;bb 3&gt;; [INV]</text>
<text text-anchor="start" x="180.3673" y="-361.1" font-family="Times,serif" font-size="14.00" fill="#000000">else</text>
<text text-anchor="start" x="180.3673" y="-344.3" font-family="Times,serif" font-size="14.00" fill="#000000"> &#160;goto &lt;bb 5&gt;; [INV]</text>
</g>
<!-- fn_0_basic_block_3 -->
<g id="node2" class="node">
<title>fn_0_basic_block_3</title>
<polygon fill="#d3d3d3" stroke="#000000" points="206.7695,-212.3 206.7695,-286.7 271.2305,-286.7 271.2305,-212.3 206.7695,-212.3"/>
<text text-anchor="start" x="214.7695" y="-270.1" font-family="Times,serif" font-size="14.00" fill="#000000">&lt;bb 3&gt;:</text>
<polyline fill="none" stroke="#000000" points="206.7695,-261.9 271.2305,-261.9 "/>
<text text-anchor="start" x="214.7695" y="-245.3" font-family="Times,serif" font-size="14.00" fill="#000000">f = f * i;</text>
<polyline fill="none" stroke="#000000" points="206.7695,-237.1 271.2305,-237.1 "/>
<text text-anchor="start" x="214.7695" y="-220.5" font-family="Times,serif" font-size="14.00" fill="#000000">i = i + 1;</text>
</g>
<!-- fn_0_basic_block_4&#45;&gt;fn_0_basic_block_3 -->
<g id="edge4" class="edge">
<title>fn_0_basic_block_4:s&#45;&gt;fn_0_basic_block_3:n</title>
<path fill="none" stroke="#000000" stroke-width="2" d="M239,-336.5C239,-318.0972 239,-311.1243 239,-296.6505"/>
<polygon fill="#000000" stroke="#000000" stroke-width="2" points="242.5001,-296.5 239,-286.5 235.5001,-296.5 242.5001,-296.5"/>
</g>
<!-- fn_0_basic_block_5 -->
<g id="node6" class="node">
<title>fn_0_basic_block_5</title>
<polygon fill="#d3d3d3" stroke="#000000" points="36.1097,-199.9 36.1097,-299.1 155.8903,-299.1 155.8903,-199.9 36.1097,-199.9"/>
<text text-anchor="start" x="44.1097" y="-282.5" font-family="Times,serif" font-size="14.00" fill="#000000">&lt;bb 5&gt;:</text>
<polyline fill="none" stroke="#000000" points="36.1097,-274.3 155.8903,-274.3 "/>
<text text-anchor="start" x="44.1097" y="-257.7" font-family="Times,serif" font-size="14.00" fill="#000000">printf (&quot;%d\n&quot;, f);</text>
<polyline fill="none" stroke="#000000" points="36.1097,-249.5 155.8903,-249.5 "/>
<text text-anchor="start" x="44.1097" y="-232.9" font-family="Times,serif" font-size="14.00" fill="#000000">D.2324 = 0;</text>
<polyline fill="none" stroke="#000000" points="36.1097,-224.7 155.8903,-224.7 "/>
<text text-anchor="start" x="44.1097" y="-208.1" font-family="Times,serif" font-size="14.00" fill="#000000">n = {CLOBBER};</text>
</g>
<!-- fn_0_basic_block_4&#45;&gt;fn_0_basic_block_5 -->
<g id="edge5" class="edge">
<title>fn_0_basic_block_4:s&#45;&gt;fn_0_basic_block_5:n</title>
<path fill="none" stroke="#000000" stroke-width="2" d="M239,-336.5C239,-274.6981 112.2669,-354.6472 97.4153,-309.4567"/>
<polygon fill="#000000" stroke="#000000" stroke-width="2" points="100.8726,-308.9079 96,-299.5 93.9422,-309.8931 100.8726,-308.9079"/>
</g>
<!-- fn_0_basic_block_3&#45;&gt;fn_0_basic_block_4 -->
<g id="edge3" class="edge">
<title>fn_0_basic_block_3:s&#45;&gt;fn_0_basic_block_4:n</title>
<path fill="none" stroke="#0000ff" stroke-width="2" stroke-dasharray="1,5" d="M239,-212.5C239,-198.1753 259.8194,-203.8407 271.2305,-212.5 316.4835,-246.8403 297.9162,-279.3191 305.6327,-335.6 305.6327,-335.6 259.0703,-422.8791 243.7921,-451.5175"/>
<polygon fill="#0000ff" stroke="#0000ff" stroke-width="2" points="240.619,-450.0296 239,-460.5 246.795,-453.3245 240.619,-450.0296"/>
</g>
<!-- fn_0_basic_block_0 -->
<g id="node3" class="node">
<title>fn_0_basic_block_0</title>
<polygon fill="#ffffff" stroke="#000000" points="239,-691.2 177.76,-673.2 239,-655.2 300.24,-673.2 239,-691.2"/>
<polyline fill="none" stroke="#000000" points="189.273,-676.584 189.273,-669.816 "/>
<polyline fill="none" stroke="#000000" points="227.487,-658.584 250.513,-658.584 "/>
<polyline fill="none" stroke="#000000" points="288.727,-669.816 288.727,-676.584 "/>
<polyline fill="none" stroke="#000000" points="250.513,-687.816 227.487,-687.816 "/>
<text text-anchor="middle" x="239" y="-669" font-family="Times,serif" font-size="14.00" fill="#000000">ENTRY</text>
</g>
<!-- fn_0_basic_block_1 -->
<g id="node4" class="node">
<title>fn_0_basic_block_1</title>
<polygon fill="#ffffff" stroke="#000000" points="96,-52 49.1002,-34 96,-16 142.8998,-34 96,-52"/>
<polyline fill="none" stroke="#000000" points="60.3034,-38.2998 60.3034,-29.7002 "/>
<polyline fill="none" stroke="#000000" points="84.7968,-20.2998 107.2032,-20.2998 "/>
<polyline fill="none" stroke="#000000" points="131.6966,-29.7002 131.6966,-38.2998 "/>
<polyline fill="none" stroke="#000000" points="107.2032,-47.7002 84.7968,-47.7002 "/>
<text text-anchor="middle" x="96" y="-29.8" font-family="Times,serif" font-size="14.00" fill="#000000">EXIT</text>
</g>
<!-- fn_0_basic_block_0&#45;&gt;fn_0_basic_block_1 -->
<!-- fn_0_basic_block_2 -->
<g id="node5" class="node">
<title>fn_0_basic_block_2</title>
<polygon fill="#d3d3d3" stroke="#000000" points="175.8673,-502.7 175.8673,-618.7 302.1327,-618.7 302.1327,-502.7 175.8673,-502.7"/>
<text text-anchor="start" x="183.8673" y="-602.1" font-family="Times,serif" font-size="14.00" fill="#000000">&lt;bb 2&gt;:</text>
<polyline fill="none" stroke="#000000" points="175.8673,-593.9 302.1327,-593.9 "/>
<text text-anchor="start" x="183.8673" y="-577.3" font-family="Times,serif" font-size="14.00" fill="#000000">scanf (&quot;%d&quot;, &amp;n);</text>
<polyline fill="none" stroke="#000000" points="175.8673,-569.1 302.1327,-569.1 "/>
<text text-anchor="start" x="183.8673" y="-552.5" font-family="Times,serif" font-size="14.00" fill="#000000">i = 2;</text>
<polyline fill="none" stroke="#000000" points="175.8673,-544.3 302.1327,-544.3 "/>
<text text-anchor="start" x="183.8673" y="-527.7" font-family="Times,serif" font-size="14.00" fill="#000000">f = 1;</text>
<text text-anchor="start" x="183.8673" y="-510.9" font-family="Times,serif" font-size="14.00" fill="#000000">goto &lt;bb 4&gt;; [INV]</text>
</g>
<!-- fn_0_basic_block_0&#45;&gt;fn_0_basic_block_2 -->
<g id="edge1" class="edge">
<title>fn_0_basic_block_0:s&#45;&gt;fn_0_basic_block_2:n</title>
<path fill="none" stroke="#0000ff" stroke-width="2" d="M239,-655.2C239,-643.0333 239,-637.7104 239,-628.9656"/>
<polygon fill="#0000ff" stroke="#0000ff" stroke-width="2" points="242.5001,-628.7 239,-618.7 235.5001,-628.7 242.5001,-628.7"/>
</g>
<!-- fn_0_basic_block_2&#45;&gt;fn_0_basic_block_4 -->
<g id="edge2" class="edge">
<title>fn_0_basic_block_2:s&#45;&gt;fn_0_basic_block_4:n</title>
<path fill="none" stroke="#0000ff" stroke-width="2" d="M239,-502.7C239,-487.9007 239,-481.8596 239,-470.7551"/>
<polygon fill="#0000ff" stroke="#0000ff" stroke-width="2" points="242.5001,-470.5 239,-460.5 235.5001,-470.5 242.5001,-470.5"/>
</g>
<!-- fn_0_basic_block_6 -->
<g id="node7" class="node">
<title>fn_0_basic_block_6</title>
<polygon fill="#d3d3d3" stroke="#000000" points="46.7882,-88.5 46.7882,-162.9 145.2118,-162.9 145.2118,-88.5 46.7882,-88.5"/>
<text text-anchor="start" x="54.7882" y="-146.3" font-family="Times,serif" font-size="14.00" fill="#000000">&lt;bb 6&gt;:</text>
<polyline fill="none" stroke="#000000" points="46.7882,-138.1 145.2118,-138.1 "/>
<text text-anchor="start" x="54.7882" y="-121.5" font-family="Times,serif" font-size="14.00" fill="#000000">&lt;L4&gt;:</text>
<polyline fill="none" stroke="#000000" points="46.7882,-113.3 145.2118,-113.3 "/>
<text text-anchor="start" x="54.7882" y="-96.7" font-family="Times,serif" font-size="14.00" fill="#000000">return D.2324;</text>
</g>
<!-- fn_0_basic_block_5&#45;&gt;fn_0_basic_block_6 -->
<g id="edge6" class="edge">
<title>fn_0_basic_block_5:s&#45;&gt;fn_0_basic_block_6:n</title>
<path fill="none" stroke="#0000ff" stroke-width="2" d="M96,-199.5C96,-187.1056 96,-181.7556 96,-172.7733"/>
<polygon fill="#0000ff" stroke="#0000ff" stroke-width="2" points="99.5001,-172.7 96,-162.7 92.5001,-172.7 99.5001,-172.7"/>
</g>
<!-- fn_0_basic_block_6&#45;&gt;fn_0_basic_block_1 -->
<g id="edge7" class="edge">
<title>fn_0_basic_block_6:s&#45;&gt;fn_0_basic_block_1:n</title>
<path fill="none" stroke="#000000" stroke-width="2" d="M96,-88.7C96,-76.3392 96,-71.0038 96,-62.046"/>
<polygon fill="#000000" stroke="#000000" stroke-width="2" points="99.5001,-62 96,-52 92.5001,-62 99.5001,-62"/>
</g>
</g>
</svg>
